<svg width="720px" height="135px" version="1.1" xmlns="http://www.w3.org/2000/svg" xmlns:xlink="http://www.w3.org/1999/xlink" overflow="visible" id="pfldcq7">
   <desc>Engraved by Verovio 6.2.1[undefined]</desc>
   <defs>
      <g id="E050-pfldcq7">
         <path transform="scale(1,-1)" d="M441 -245c-23 -4 -48 -6 -76 -6c-59 0 -102 7 -130 20c-88 42 -150 93 -187 154c-26 44 -43 103 -48 176c0 6 -1 13 -1 19c0 54 15 111 45 170c29 57 65 106 110 148s96 85 153 127c-3 16 -8 46 -13 92c-4 43 -5 73 -5 89c0 117 16 172 69 257c34 54 64 82 89 82 c21 0 43 -30 69 -92s39 -115 41 -159v-15c0 -109 -21 -162 -67 -241c-13 -20 -63 -90 -98 -118c-13 -9 -25 -19 -37 -29l31 -181c8 1 18 2 28 2c58 0 102 -12 133 -35c59 -43 92 -104 98 -184c1 -7 1 -15 1 -22c0 -123 -87 -209 -181 -248c8 -57 17 -110 25 -162 c5 -31 6 -58 6 -80c0 -30 -5 -53 -14 -70c-35 -64 -88 -99 -158 -103c-5 0 -11 -1 -16 -1c-37 0 -72 10 -108 27c-50 24 -77 59 -80 105v11c0 29 7 55 20 76c18 28 45 42 79 44h6c49 0 93 -42 97 -87v-9c0 -51 -34 -86 -105 -106c17 -24 51 -36 102 -36c62 0 116 43 140 85 c9 16 13 41 13 74c0 20 -1 42 -5 67c-8 53 -18 106 -26 159zM461 939c-95 0 -135 -175 -135 -286c0 -24 2 -48 5 -71c50 39 92 82 127 128c40 53 60 100 60 140v8c-4 53 -22 81 -55 81h-2zM406 119l54 -326c73 25 110 78 110 161c0 7 0 15 -1 23c-7 95 -57 142 -151 142h-12 zM382 117c-72 -2 -128 -47 -128 -120v-7c2 -46 43 -99 75 -115c-3 -2 -7 -5 -10 -10c-70 33 -116 88 -123 172v11c0 68 44 126 88 159c23 17 49 29 78 36l-29 170c-21 -13 -52 -37 -92 -73c-50 -44 -86 -84 -109 -119c-45 -69 -67 -130 -67 -182v-13c5 -68 35 -127 93 -176 s125 -73 203 -73c25 0 50 3 75 9c-19 111 -36 221 -54 331z" />
      </g>
      <g id="E084-pfldcq7">
         <path transform="scale(1,-1)" d="M20 -78c84 97 114 180 134 329h170c-13 -32 -82 -132 -99 -151l-84 -97c-33 -36 -59 -63 -80 -81h162v102l127 123v-225h57v-39h-57v-34c0 -43 19 -65 57 -65v-34h-244v36c48 0 60 26 60 70v27h-203v39z" />
      </g>
      <g id="E0A4-pfldcq7">
         <path transform="scale(1,-1)" d="M0 -39c0 68 73 172 200 172c66 0 114 -37 114 -95c0 -84 -106 -171 -218 -171c-64 0 -96 30 -96 94z" />
      </g>
   </defs>
   <style type="text/css">#pfldcq7 g.ending, #pfldcq7 g.fing, #pfldcq7 g.reh, #pfldcq7 g.tempo {font-weight:bold;}#pfldcq7 g.dir, #pfldcq7 g.dynam, #pfldcq7 g.mNum {font-style:italic;}#pfldcq7 g.label {font-weight:normal;}#pfldcq7 ellipse, #pfldcq7 path, #pfldcq7 polygon, #pfldcq7 polyline, #pfldcq7 rect {stroke:currentColor}</style>
   <svg class="definition-scale" color="black" font-family="Times, serif" viewBox="0 0 15000 2800">
      <g class="page-margin" transform="translate(500, 500)">
         <g id="zwjh51u" class="mdiv pageMilestone" />
         <g id="a26dhxx" class="score pageMilestone" />
         <g id="ow4vqmx" class="system">
            <g id="y11s0vjw" class="label">
               <text x="1195" y="990" text-anchor="end" font-size="0px">
                  <tspan id="z18rncma" class="text">
                     <tspan font-size="405px">Music</tspan>
                  </tspan>
               </text>
            </g>
            <g id="cvslvlc" class="section systemMilestone" />
            <g id="nc87cdx" class="section systemMilestone" />
            <g id="rofnbli" class="measure">
               <g id="a14jvi25" class="staff">
                  <path d="M1375 540 L5637 540" stroke-width="13" />
                  <path d="M1375 720 L5637 720" stroke-width="13" />
                  <path d="M1375 900 L5637 900" stroke-width="13" />
                  <path d="M1375 1080 L5637 1080" stroke-width="13" />
                  <path d="M1375 1260 L5637 1260" stroke-width="13" />
                  <g id="y9slvx8" class="clef">
                     <use xlink:href="#E050-pfldcq7" transform="translate(1465, 1080) scale(0.72, 0.72)" />
                  </g>
                  <g id="zztr0e0" class="keySig" />
                  <g id="a1mcq0va" class="meterSig">
                     <use xlink:href="#E084-pfldcq7" transform="translate(2096, 720) scale(0.72, 0.72)" />
                     <use xlink:href="#E084-pfldcq7" transform="translate(2096, 1080) scale(0.72, 0.72)" />
                  </g>
                  <g class="ledgerLines above">
                     <path d="M3506 360 L3828 360" stroke-width="22" />
                  </g>
                  <g id="btb195j" class="layer">
                     <g id="c1qu363t" class="beam">
                        <polygon points="2658,1440 3256,1260 3256,1170 2658,1350" />
                        <polygon points="3030,1190 3256,1125 3256,1035 3030,1100" />
                        <g id="d1qbxhyb" class="note">
                           <g class="notehead">
                              <use xlink:href="#E0A4-pfldcq7" transform="translate(2658, 810) scale(0.72, 0.72)" />
                           </g>
                           <g id="luxpun6" class="dots">
                              <ellipse cx="2974" cy="810" rx="36" ry="36" />
                           </g>
                           <g id="k15pv64f" class="stem">
                              <path d="M2667 838 L2667 1422" stroke-width="18" />
                           </g>
                           <g id="ea18knu" class="accid" />
                        </g>
                        <g id="f17wn7pb" class="note">
                           <g class="notehead">
                              <use xlink:href="#E0A4-pfldcq7" transform="translate(3238, 450) scale(0.72, 0.72)" />
                           </g>
                           <g id="mymaivj" class="stem">
                              <path d="M3247 478 L3247 1242" stroke-width="18" />
                           </g>
                           <g id="gsl2xn3" class="accid" />
                        </g>
                     </g>
                     <g id="h1l6rpo0" class="note">
                        <g class="notehead">
                           <use xlink:href="#E0A4-pfldcq7" transform="translate(3554, 360) scale(0.72, 0.72)" />
                        </g>
                        <g id="n1tfsls8" class="stem">
                           <path d="M3563 388 L3563 990" stroke-width="18" />
                        </g>
                        <g id="iylmghs" class="accid" />
                     </g>
                     <g id="j1rym023" class="note">
                        <g class="notehead">
                           <use xlink:href="#E0A4-pfldcq7" transform="translate(4244, 450) scale(0.72, 0.72)" />
                        </g>
                        <g id="oqj6kr3" class="stem">
                           <path d="M4253 478 L4253 1080" stroke-width="18" />
                        </g>
                        <g id="k1sx13r7" class="accid" />
                     </g>
                     <g id="l1oal6h8" class="note">
                        <g class="notehead">
                           <use xlink:href="#E0A4-pfldcq7" transform="translate(4934, 630) scale(0.72, 0.72)" />
                        </g>
                        <g id="p1n5rax1" class="stem">
                           <path d="M4943 658 L4943 1260" stroke-width="18" />
                        </g>
                        <g id="m1bd8nkm" class="accid" />
                     </g>
                  </g>
               </g>
               <g id="z1s2kxti" class="barLine">
                  <path d="M5624 540 L5624 1260" stroke-width="27" />
               </g>
            </g>
            <g id="wifol1p" class="systemMilestoneEnd nc87cdx" />
            <g id="xykgivg" class="systemMilestoneEnd cvslvlc" />
         </g>
         <g id="y4ccyre" class="pageMilestoneEnd a26dhxx" />
         <g id="z195dzbs" class="pageMilestoneEnd zwjh51u" />
         <g id="amu2gq6" class="pgHead autogenerated" />
      </g>
   </svg>
</svg>
